<?xml version="1.0" encoding="UTF-8"?>
<svg xmlns="http://www.w3.org/2000/svg" viewBox="0 0 1408 768">
  <path id="region-0" d="M 0.00 0.00 L 281.60 0.00 L 281.60 153.60 L 0.00 153.60 Z"/>
  <path id="region-1" d="M 281.60 0.00 L 563.20 0.00 L 563.20 153.60 L 281.60 153.60 Z"/>
  <path id="region-2" d="M 563.20 0.00 L 844.80 0.00 L 844.80 153.60 L 563.20 153.60 Z"/>
  <path id="region-3" d="M 844.80 0.00 L 1126.40 0.00 L 1126.40 153.60 L 844.80 153.60 Z"/>
  <path id="region-4" d="M 1126.40 0.00 L 1408.00 0.00 L 1408.00 153.60 L 1126.40 153.60 Z"/>
  <path id="region-5" d="M 0.00 153.60 L 281.60 153.60 L 281.60 307.20 L 0.00 307.20 Z"/>
  <path id="region-6" d="M 281.60 153.60 L 563.20 153.60 L 563.20 307.20 L 281.60 307.20 Z"/>
  <path id="region-7" d="M 563.20 153.60 L 844.80 153.60 L 844.80 307.20 L 563.20 307.20 Z"/>
  <path id="region-8" d="M 844.80 153.60 L 1126.40 153.60 L 1126.40 307.20 L 844.80 307.20 Z"/>
  <path id="region-9" d="M 1126.40 153.60 L 1408.00 153.60 L 1408.00 307.20 L 1126.40 307.20 Z"/>
  <path id="region-10" d="M 0.00 307.20 L 281.60 307.20 L 281.60 460.80 L 0.00 460.80 Z"/>
  <path id="region-11" d="M 281.60 307.20 L 563.20 307.20 L 563.20 460.80 L 281.60 460.80 Z"/>
  <path id="region-12" d="M 563.20 307.20 L 844.80 307.20 L 844.80 460.80 L 563.20 460.80 Z"/>
  <path id="region-13" d="M 844.80 307.20 L 1126.40 307.20 L 1126.40 460.80 L 844.80 460.80 Z"/>
  <path id="region-14" d="M 1126.40 307.20 L 1408.00 307.20 L 1408.00 460.80 L 1126.40 460.80 Z"/>
  <path id="region-15" d="M 0.00 460.80 L 281.60 460.80 L 281.60 614.40 L 0.00 614.40 Z"/>
  <path id="region-16" d="M 281.60 460.80 L 563.20 460.80 L 563.20 614.40 L 281.60 614.40 Z"/>
  <path id="region-17" d="M 563.20 460.80 L 844.80 460.80 L 844.80 614.40 L 563.20 614.40 Z"/>
  <path id="region-18" d="M 844.80 460.80 L 1126.40 460.80 L 1126.40 614.40 L 844.80 614.40 Z"/>
  <path id="region-19" d="M 1126.40 460.80 L 1408.00 460.80 L 1408.00 614.40 L 1126.40 614.40 Z"/>
  <path id="region-20" d="M 0.00 614.40 L 281.60 614.40 L 281.60 768.00 L 0.00 768.00 Z"/>
  <path id="region-21" d="M 281.60 614.40 L 563.20 614.40 L 563.20 768.00 L 281.60 768.00 Z"/>
  <path id="region-22" d="M 563.20 614.40 L 844.80 614.40 L 844.80 768.00 L 563.20 768.00 Z"/>
  <path id="region-23" d="M 844.80 614.40 L 1126.40 614.40 L 1126.40 768.00 L 844.80 768.00 Z"/>
  <path id="region-24" d="M 1126.40 614.40 L 1408.00 614.40 L 1408.00 768.00 L 1126.40 768.00 Z"/>
</svg>
