<?xml version="1.0" encoding="UTF-8"?>
<svg xmlns="http://www.w3.org/2000/svg" viewBox="0 0 800 900" width="800" height="900">
  <!-- Victorian House Facade -->

  <!-- Sky / Background -->
  <path id="region-1" d="M0,0 L800,0 L800,600 L0,600 Z" fill="none" stroke="black" stroke-width="1"/>

  <!-- GARDEN / GROUND -->
  <path id="region-2" d="M0,730 C150,710 300,705 400,710 C500,715 650,720 800,730 L800,900 L0,900 Z" fill="none" stroke="black" stroke-width="3"/>
  <!-- Path to door -->
  <path id="region-3" d="M340,730 L340,900 L460,900 L460,730 Z" fill="none" stroke="black" stroke-width="2"/>
  <!-- Path stones -->
  <path id="region-4"  d="M345,760 L355,760 L355,780 L345,780 Z" fill="none" stroke="black" stroke-width="1"/>
  <path id="region-5"  d="M365,760 L375,760 L375,780 L365,780 Z" fill="none" stroke="black" stroke-width="1"/>
  <path id="region-6"  d="M385,760 L395,760 L395,780 L385,780 Z" fill="none" stroke="black" stroke-width="1"/>
  <path id="region-7"  d="M405,760 L415,760 L415,780 L405,780 Z" fill="none" stroke="black" stroke-width="1"/>
  <path id="region-8"  d="M425,760 L435,760 L435,780 L425,780 Z" fill="none" stroke="black" stroke-width="1"/>
  <path id="region-9"  d="M445,760 L455,760 L455,780 L445,780 Z" fill="none" stroke="black" stroke-width="1"/>

  <!-- HOUSE MAIN STRUCTURE -->
  <!-- Foundation -->
  <path id="region-10" d="M100,720 L100,680 L700,680 L700,720 Z" fill="none" stroke="black" stroke-width="3"/>

  <!-- Main walls -->
  <path id="region-11" d="M120,680 L120,380 L680,380 L680,680 Z" fill="none" stroke="black" stroke-width="4"/>

  <!-- Left bay window projection -->
  <path id="region-12" d="M120,500 L80,500 L80,620 L120,620 L120,500 Z" fill="none" stroke="black" stroke-width="3"/>
  <!-- Right bay window projection -->
  <path id="region-13" d="M680,500 L720,500 L720,620 L680,620 L680,500 Z" fill="none" stroke="black" stroke-width="3"/>

  <!-- ROOF SECTION -->
  <!-- Main gable roof -->
  <path id="region-14" d="M100,380 L400,120 L700,380 Z" fill="none" stroke="black" stroke-width="4"/>
  <!-- Left roof half (separate for coloring) -->
  <path id="region-15" d="M100,380 L400,120 L400,380 Z" fill="none" stroke="black" stroke-width="2"/>

  <!-- Decorative gingerbread trim on gable -->
  <path id="region-16" d="M360,200 C360,188 380,182 390,188 C398,194 396,206 388,210 C380,214 362,210 360,200 Z" fill="none" stroke="black" stroke-width="2"/>
  <path id="region-17" d="M410,200 C410,188 430,182 440,188 C448,194 446,206 438,210 C430,214 412,210 410,200 Z" fill="none" stroke="black" stroke-width="2"/>
  <path id="region-18" d="M330,260 C330,248 350,242 360,248 C368,254 366,266 358,270 C350,274 332,270 330,260 Z" fill="none" stroke="black" stroke-width="2"/>
  <path id="region-19" d="M440,260 C440,248 460,242 470,248 C478,254 476,266 468,270 C460,274 442,270 440,260 Z" fill="none" stroke="black" stroke-width="2"/>

  <!-- TURRET (right side) -->
  <!-- Turret walls -->
  <path id="region-20" d="M580,380 L580,200 L680,200 L680,380 Z" fill="none" stroke="black" stroke-width="3"/>
  <!-- Turret cone roof -->
  <path id="region-21" d="M570,200 L630,100 L690,200 Z" fill="none" stroke="black" stroke-width="3"/>
  <!-- Turret roof left half -->
  <path id="region-22" d="M570,200 L630,100 L630,200 Z" fill="none" stroke="black" stroke-width="2"/>

  <!-- CHIMNEY -->
  <path id="region-23" d="M230,260 L230,160 L280,160 L280,280 Z" fill="none" stroke="black" stroke-width="3"/>
  <path id="region-24" d="M220,160 L220,148 L290,148 L290,160 Z" fill="none" stroke="black" stroke-width="2"/>

  <!-- FRONT DOOR -->
  <path id="region-25" d="M345,680 L345,540 C345,520 400,516 400,516 C400,516 455,520 455,540 L455,680 Z" fill="none" stroke="black" stroke-width="3"/>
  <!-- Door arch -->
  <path id="region-26" d="M345,540 C345,518 372,506 400,506 C428,506 455,518 455,540 Z" fill="none" stroke="black" stroke-width="3"/>
  <!-- Door panels -->
  <path id="region-27" d="M355,600 L355,680 L398,680 L398,600 Z" fill="none" stroke="black" stroke-width="2"/>
  <path id="region-28" d="M402,600 L402,680 L445,680 L445,600 Z" fill="none" stroke="black" stroke-width="2"/>
  <path id="region-29" d="M355,545 L355,595 L398,595 L398,545 Z" fill="none" stroke="black" stroke-width="2"/>
  <path id="region-30" d="M402,545 L402,595 L445,595 L445,545 Z" fill="none" stroke="black" stroke-width="2"/>
  <!-- Door knob -->
  <path id="region-31" d="M448,618 C448,613 453,610 457,612 C461,614 462,620 460,624 C458,628 452,628 449,626 Z" fill="none" stroke="black" stroke-width="2"/>

  <!-- GROUND FLOOR WINDOWS (large) -->
  <!-- Left window -->
  <path id="region-32" d="M145,480 L145,650 L285,650 L285,480 Z" fill="none" stroke="black" stroke-width="3"/>
  <path id="region-33" d="M145,480 C145,460 215,450 215,460 L285,480 Z" fill="none" stroke="black" stroke-width="2"/>
  <!-- Left window panes -->
  <path id="region-34" d="M152,490 L152,570 L210,570 L210,490 Z" fill="none" stroke="black" stroke-width="2"/>
  <path id="region-35" d="M218,490 L218,570 L278,570 L278,490 Z" fill="none" stroke="black" stroke-width="2"/>
  <path id="region-36" d="M152,578 L152,645 L210,645 L210,578 Z" fill="none" stroke="black" stroke-width="2"/>
  <path id="region-37" d="M218,578 L218,645 L278,645 L278,578 Z" fill="none" stroke="black" stroke-width="2"/>

  <!-- Right window -->
  <path id="region-38" d="M515,480 L515,650 L655,650 L655,480 Z" fill="none" stroke="black" stroke-width="3"/>
  <path id="region-39" d="M515,480 C515,460 585,450 585,460 L655,480 Z" fill="none" stroke="black" stroke-width="2"/>
  <path id="region-40" d="M522,490 L522,570 L580,570 L580,490 Z" fill="none" stroke="black" stroke-width="2"/>
  <path id="region-41" d="M588,490 L588,570 L648,570 L648,490 Z" fill="none" stroke="black" stroke-width="2"/>
  <path id="region-42" d="M522,578 L522,645 L580,645 L580,578 Z" fill="none" stroke="black" stroke-width="2"/>
  <path id="region-43" d="M588,578 L588,645 L648,645 L648,578 Z" fill="none" stroke="black" stroke-width="2"/>

  <!-- UPPER FLOOR WINDOWS -->
  <!-- Upper left window -->
  <path id="region-44" d="M145,390 L145,460 L255,460 L255,390 Z" fill="none" stroke="black" stroke-width="3"/>
  <path id="region-45" d="M152,398 L152,452 L206,452 L206,398 Z" fill="none" stroke="black" stroke-width="2"/>
  <path id="region-46" d="M212,398 L212,452 L248,452 L248,398 Z" fill="none" stroke="black" stroke-width="2"/>
  <!-- Upper right window -->
  <path id="region-47" d="M545,390 L545,460 L655,460 L655,390 Z" fill="none" stroke="black" stroke-width="3"/>
  <path id="region-48" d="M552,398 L552,452 L596,452 L596,398 Z" fill="none" stroke="black" stroke-width="2"/>
  <path id="region-49" d="M602,398 L602,452 L648,452 L648,398 Z" fill="none" stroke="black" stroke-width="2"/>

  <!-- TURRET WINDOWS -->
  <path id="region-50" d="M590,280 L590,340 L670,340 L670,280 Z" fill="none" stroke="black" stroke-width="3"/>
  <path id="region-51" d="M590,280 C590,264 630,258 630,266 L670,280 Z" fill="none" stroke="black" stroke-width="2"/>
  <path id="region-52" d="M595,290 L595,334 L628,334 L628,290 Z" fill="none" stroke="black" stroke-width="2"/>
  <path id="region-53" d="M632,290 L632,334 L665,334 L665,290 Z" fill="none" stroke="black" stroke-width="2"/>

  <!-- GARDEN GATE -->
  <path id="region-54" d="M60,730 L60,660 L120,660 L120,730 Z" fill="none" stroke="black" stroke-width="3"/>
  <!-- Gate bars (decorative) -->
  <path d="M70,660 L70,730" fill="none" stroke="black" stroke-width="2"/>
  <path d="M80,660 L80,730" fill="none" stroke="black" stroke-width="2"/>
  <path d="M90,660 L90,730" fill="none" stroke="black" stroke-width="2"/>
  <path d="M100,660 L100,730" fill="none" stroke="black" stroke-width="2"/>
  <path d="M110,660 L110,730" fill="none" stroke="black" stroke-width="2"/>
  <!-- Gate top arch -->
  <path id="region-55" d="M60,660 C60,640 90,632 90,640 C90,632 120,640 120,660 Z" fill="none" stroke="black" stroke-width="3"/>

  <!-- FLOWER BEDS -->
  <path id="region-56" d="M0,730 C30,710 70,705 100,715 C80,725 40,730 0,735 Z" fill="none" stroke="black" stroke-width="2"/>
  <path id="region-57" d="M700,730 C730,710 770,705 800,715 C780,725 740,730 700,735 Z" fill="none" stroke="black" stroke-width="2"/>

  <!-- PORCH COLUMNS -->
  <path id="region-58" d="M310,680 L310,520 L330,520 L330,680 Z" fill="none" stroke="black" stroke-width="3"/>
  <path id="region-59" d="M470,680 L470,520 L490,520 L490,680 Z" fill="none" stroke="black" stroke-width="3"/>
  <!-- Column capitals (decorative) -->
  <path id="region-60" d="M304,520 L336,520 L336,510 L304,510 Z" fill="none" stroke="black" stroke-width="2"/>
  <path id="region-61" d="M464,520 L496,520 L496,510 L464,510 Z" fill="none" stroke="black" stroke-width="2"/>
</svg>
